<svg width="16" height="20" viewBox="0 0 16 20" fill="none" xmlns="http://www.w3.org/2000/svg">
<g clip-path="url(#clip0_356_900)">
<path d="M15.5 12.5V2.5C15.5 1.83696 15.2366 1.20107 14.7678 0.732233C14.2989 0.263392 13.663 0 13 0L9.66667 0V0.833333C9.66667 1.27536 9.49107 1.69928 9.17851 2.01184C8.86595 2.32441 8.44203 2.5 8 2.5C7.55797 2.5 7.13405 2.32441 6.82149 2.01184C6.50893 1.69928 6.33333 1.27536 6.33333 0.833333V0H3C2.33696 0 1.70107 0.263392 1.23223 0.732233C0.763392 1.20107 0.5 1.83696 0.5 2.5V12.5H3.83333V14.1667H0.5V20H6.33333V19.1667C6.33333 18.7246 6.50893 18.3007 6.82149 17.9882C7.13405 17.6756 7.55797 17.5 8 17.5C8.44203 17.5 8.86595 17.6756 9.17851 17.9882C9.49107 18.3007 9.66667 18.7246 9.66667 19.1667V20H15.5V14.1667H12.1667V12.5H15.5ZM9.66667 14.1667H6.33333V12.5H9.66667V14.1667Z" fill="#919191"/>
</g>
<defs>
<clipPath id="clip0_356_900">
<rect width="15" height="20" fill="white" transform="translate(0.5)"/>
</clipPath>
</defs>
</svg>
