<svg width="19" height="21" viewBox="0 0 19 21" fill="none" xmlns="http://www.w3.org/2000/svg">
<g clip-path="url(#clip0_37_964)">
<path d="M7.87806 15.2588C7.87909 14.2148 8.1868 13.194 8.76299 12.3234C9.33917 11.4527 10.1584 10.7705 11.119 10.3614C12.0796 9.95241 13.1392 9.83458 14.1662 10.0226C15.1932 10.2106 16.1423 10.6961 16.8957 11.419V0.912598H2.95935C2.30709 0.912598 1.68155 1.17171 1.22033 1.63293C0.75911 2.09414 0.5 2.71969 0.5 3.37195V18.1281C0.5 18.7803 0.75911 19.4059 1.22033 19.8671C1.68155 20.3283 2.30709 20.5874 2.95935 20.5874H13.2067C11.7934 20.5874 10.4381 20.026 9.43877 19.0267C8.43946 18.0274 7.87806 16.6721 7.87806 15.2588ZM4.59892 5.01152H12.7968V6.65109H4.59892V5.01152ZM17.3408 20.5522L15.1627 18.374C14.5783 18.747 13.8999 18.946 13.2067 18.9478C12.477 18.9478 11.7638 18.7315 11.1571 18.3261C10.5505 17.9208 10.0776 17.3446 9.79844 16.6705C9.51922 15.9965 9.44617 15.2547 9.58851 14.5391C9.73085 13.8235 10.0822 13.1662 10.5981 12.6503C11.114 12.1344 11.7714 11.783 12.487 11.6407C13.2026 11.4983 13.9443 11.5714 14.6184 11.8506C15.2925 12.1298 15.8686 12.6026 16.274 13.2093C16.6793 13.816 16.8957 14.5292 16.8957 15.2588C16.8938 15.9521 16.6948 16.6305 16.3218 17.2148L18.5 19.393L17.3408 20.5522Z" fill="#DBA783"/>
</g>
<defs>
<clipPath id="clip0_37_964">
<rect width="18" height="20" fill="white" transform="translate(0.5 0.75)"/>
</clipPath>
</defs>
</svg>
