<svg width="21" height="21" viewBox="0 0 21 21" fill="none" xmlns="http://www.w3.org/2000/svg">
<g clip-path="url(#clip0_37_980)">
<path d="M20.5 6.58333V7.41667H0.5V6.58333C0.5 4.2825 2.36583 2.41667 4.66667 2.41667H5.5V1.58333C5.5 1.12333 5.87333 0.75 6.33333 0.75C6.79333 0.75 7.16667 1.12333 7.16667 1.58333V2.41667H13.8333V1.58333C13.8333 1.12333 14.2067 0.75 14.6667 0.75C15.1267 0.75 15.5 1.12333 15.5 1.58333V2.41667H16.3333C18.6342 2.41667 20.5 4.2825 20.5 6.58333ZM20.5 14.9167C20.5 18.1333 17.8825 20.75 14.6667 20.75C11.4508 20.75 8.83333 18.1333 8.83333 14.9167C8.83333 11.7 11.4508 9.08333 14.6667 9.08333C17.8825 9.08333 20.5 11.7 20.5 14.9167ZM16.3333 15.405L15.5 14.5717V13.25C15.5 12.79 15.1267 12.4167 14.6667 12.4167C14.2067 12.4167 13.8333 12.79 13.8333 13.25V14.9167C13.8333 15.1375 13.9208 15.35 14.0775 15.5058L15.155 16.5833C15.48 16.9083 16.0083 16.9083 16.3333 16.5833C16.6583 16.2583 16.6583 15.73 16.3333 15.405ZM7.16667 14.9167C7.16667 12.5592 8.25667 10.4583 9.9575 9.08333H0.5V16.5833C0.5 18.8842 2.36583 20.75 4.66667 20.75H9.9575C8.25667 19.375 7.16667 17.2742 7.16667 14.9167Z" fill="#DBA783"/>
</g>
<defs>
<clipPath id="clip0_37_980">
<rect width="20" height="20" fill="white" transform="translate(0.5 0.75)"/>
</clipPath>
</defs>
</svg>
