<svg width="21" height="19" viewBox="0 0 21 19" fill="none" xmlns="http://www.w3.org/2000/svg">
<g clip-path="url(#clip0_37_988)">
<path d="M15.0815 0.25C14.1435 0.26408 13.226 0.516775 12.4215 0.982566C11.6171 1.44836 10.9543 2.11075 10.5 2.90285C10.0457 2.11075 9.3829 1.44836 8.57847 0.982566C7.77405 0.516775 6.85651 0.26408 5.91852 0.25C4.42324 0.312696 3.01444 0.943965 1.99991 2.00589C0.985388 3.06782 0.447597 4.47408 0.504033 5.91746C0.504033 11.3638 9.63035 17.6543 10.0185 17.9212L10.5 18.25L10.9815 17.9212C11.3696 17.6559 20.496 11.3638 20.496 5.91746C20.5524 4.47408 20.0146 3.06782 19.0001 2.00589C17.9856 0.943965 16.5768 0.312696 15.0815 0.25Z" fill="#DBA783"/>
</g>
<defs>
<clipPath id="clip0_37_988">
<rect width="20" height="18" fill="white" transform="translate(0.5 0.25)"/>
</clipPath>
</defs>
</svg>
