<svg width="19" height="20" viewBox="0 0 19 20" fill="none" xmlns="http://www.w3.org/2000/svg">
<g clip-path="url(#clip0_356_897)">
<path d="M7.87806 14.5083C7.87909 13.4643 8.1868 12.4435 8.76299 11.5729C9.33917 10.7022 10.1584 10.02 11.119 9.61096C12.0796 9.20193 13.1392 9.08409 14.1662 9.2721C15.1932 9.4601 16.1423 9.94566 16.8957 10.6685V0.162109H2.95935C2.30709 0.162109 1.68155 0.421219 1.22033 0.882437C0.75911 1.34365 0.5 1.9692 0.5 2.62146V17.3776C0.5 18.0298 0.75911 18.6554 1.22033 19.1166C1.68155 19.5778 2.30709 19.8369 2.95935 19.8369H13.2067C11.7934 19.8369 10.4381 19.2755 9.43877 18.2762C8.43946 17.2769 7.87806 15.9216 7.87806 14.5083ZM4.59892 4.26103H12.7968V5.9006H4.59892V4.26103ZM17.3408 19.8017L15.1627 17.6235C14.5783 17.9965 13.8999 18.1955 13.2067 18.1974C12.477 18.1974 11.7638 17.981 11.1571 17.5756C10.5505 17.1703 10.0776 16.5941 9.79844 15.9201C9.51922 15.246 9.44617 14.5042 9.58851 13.7886C9.73085 13.073 10.0822 12.4157 10.5981 11.8998C11.114 11.3839 11.7714 11.0325 12.487 10.8902C13.2026 10.7478 13.9443 10.8209 14.6184 11.1001C15.2925 11.3793 15.8686 11.8522 16.274 12.4588C16.6793 13.0655 16.8957 13.7787 16.8957 14.5083C16.8938 15.2016 16.6948 15.88 16.3218 16.4643L18.5 18.6425L17.3408 19.8017Z" fill="#919191"/>
</g>
<defs>
<clipPath id="clip0_356_897">
<rect width="18" height="20" fill="white" transform="translate(0.5)"/>
</clipPath>
</defs>
</svg>
