<svg width="21" height="18" viewBox="0 0 21 18" fill="none" xmlns="http://www.w3.org/2000/svg">
<g clip-path="url(#clip0_356_903)">
<path d="M15.0815 0C14.1435 0.0140802 13.226 0.266775 12.4215 0.732566C11.6171 1.19836 10.9543 1.86075 10.5 2.65285C10.0457 1.86075 9.3829 1.19836 8.57847 0.732566C7.77405 0.266775 6.85651 0.0140802 5.91852 0C4.42324 0.0626963 3.01444 0.693965 1.99991 1.75589C0.985388 2.81782 0.447597 4.22408 0.504033 5.66746C0.504033 11.1138 9.63035 17.4043 10.0185 17.6712L10.5 18L10.9815 17.6712C11.3696 17.4059 20.496 11.1138 20.496 5.66746C20.5524 4.22408 20.0146 2.81782 19.0001 1.75589C17.9856 0.693965 16.5768 0.0626963 15.0815 0Z" fill="#919191"/>
</g>
<defs>
<clipPath id="clip0_356_903">
<rect width="20" height="18" fill="white" transform="translate(0.5)"/>
</clipPath>
</defs>
</svg>
