<svg width="21" height="20" viewBox="0 0 21 20" fill="none" xmlns="http://www.w3.org/2000/svg">
<g clip-path="url(#clip0_356_958)">
<path d="M20.5 5.83333V6.66667H0.5V5.83333C0.5 3.5325 2.36583 1.66667 4.66667 1.66667H5.5V0.833333C5.5 0.373333 5.87333 0 6.33333 0C6.79333 0 7.16667 0.373333 7.16667 0.833333V1.66667H13.8333V0.833333C13.8333 0.373333 14.2067 0 14.6667 0C15.1267 0 15.5 0.373333 15.5 0.833333V1.66667H16.3333C18.6342 1.66667 20.5 3.5325 20.5 5.83333ZM20.5 14.1667C20.5 17.3833 17.8825 20 14.6667 20C11.4508 20 8.83333 17.3833 8.83333 14.1667C8.83333 10.95 11.4508 8.33333 14.6667 8.33333C17.8825 8.33333 20.5 10.95 20.5 14.1667ZM16.3333 14.655L15.5 13.8217V12.5C15.5 12.04 15.1267 11.6667 14.6667 11.6667C14.2067 11.6667 13.8333 12.04 13.8333 12.5V14.1667C13.8333 14.3875 13.9208 14.6 14.0775 14.7558L15.155 15.8333C15.48 16.1583 16.0083 16.1583 16.3333 15.8333C16.6583 15.5083 16.6583 14.98 16.3333 14.655ZM7.16667 14.1667C7.16667 11.8092 8.25667 9.70833 9.9575 8.33333H0.5V15.8333C0.5 18.1342 2.36583 20 4.66667 20H9.9575C8.25667 18.625 7.16667 16.5242 7.16667 14.1667Z" fill="#919191"/>
</g>
<defs>
<clipPath id="clip0_356_958">
<rect width="20" height="20" fill="white" transform="translate(0.5)"/>
</clipPath>
</defs>
</svg>
