<svg width="21" height="20" viewBox="0 0 21 20" fill="none" xmlns="http://www.w3.org/2000/svg">
<g clip-path="url(#clip0_356_855)">
<path d="M13.8692 11.667H7.13083C6.03567 11.6683 4.98575 12.104 4.21135 12.8783C3.43696 13.6527 3.00132 14.7027 3 15.7978V20.0003H18V15.7978C17.9987 14.7027 17.563 13.6527 16.7886 12.8783C16.0143 12.104 14.9643 11.6683 13.8692 11.667Z" fill="#919191"/>
<path d="M10.5 10C13.2614 10 15.5 7.76142 15.5 5C15.5 2.23858 13.2614 0 10.5 0C7.73858 0 5.5 2.23858 5.5 5C5.5 7.76142 7.73858 10 10.5 10Z" fill="#919191"/>
</g>
<defs>
<clipPath id="clip0_356_855">
<rect width="20" height="20" fill="white" transform="translate(0.5)"/>
</clipPath>
</defs>
</svg>
