<svg width="47" height="38" viewBox="0 0 47 38" fill="none" xmlns="http://www.w3.org/2000/svg">
<path d="M35.2092 18.5044V15.8368C38.571 15.8368 38.3507 15.8533 38.3507 15.8533C38.9464 15.9607 39.4359 16.4562 39.4359 17.1747C39.4359 17.9015 38.9464 18.3723 38.3507 18.4796C38.2528 18.5127 38.0814 18.5044 35.2092 18.5044ZM38.7016 20.1727C38.4731 20.1149 38.4323 20.1314 35.2092 20.1314V23.022C38.4405 23.022 38.4731 23.0386 38.7016 22.9807C39.3135 22.8569 39.8031 22.32 39.8031 21.5767C39.8031 20.8582 39.3135 20.2966 38.7016 20.1727ZM47 4.93499V34.0064C47 36.195 45.2457 37.9707 43.0833 37.9707H3.91667C1.75434 37.9707 0 36.195 0 34.0064V4.93499C0 2.74637 1.75434 0.970703 3.91667 0.970703H43.0833C45.2457 0.970703 47 2.74637 47 4.93499ZM14.8507 14.2098H10.1997C10.1997 19.7515 11.0727 23.2698 7.27847 23.2698C5.68733 23.2698 4.1125 22.7991 2.61111 22.0475V24.36C5.05903 25.0455 8.15972 25.0455 8.15972 25.0455C16.1481 25.0455 14.8507 21.106 14.8507 14.2098ZM29.4158 14.5814C24.2425 13.26 15.9523 13.3508 15.9523 19.479C15.9523 25.8466 24.7811 25.5575 29.4158 24.3682V22.031C25.5318 24.0709 20.6441 23.8479 20.6441 19.4707C20.6441 15.0935 25.5236 14.8787 29.4158 16.8939V14.5814ZM44.3889 21.9897C44.3889 20.4618 43.0425 19.4707 41.2882 19.3468V19.2807C42.8793 19.0578 43.7606 18.0006 43.7606 16.7866C43.7606 15.2174 42.4795 14.3089 40.7415 14.2263C40.7415 14.2263 41.2556 14.2015 30.9253 14.2015V24.7316H40.9373C42.9201 24.7399 44.3889 23.6662 44.3889 21.9897Z" fill="white"/>
</svg>
