<svg width="47" height="38" viewBox="0 0 47 38" fill="none" xmlns="http://www.w3.org/2000/svg">
<g clip-path="url(#clip0_1486_1392)">
<path d="M38.3589 17.4307C38.3589 17.4307 38.979 20.5031 39.1177 21.1473H36.3924C36.6616 20.4122 37.6979 17.5546 37.6979 17.5546C37.6816 17.5794 37.9672 16.8031 38.1304 16.3241L38.3589 17.4307ZM47 4.93499V34.0064C47 36.195 45.2457 37.9707 43.0833 37.9707H3.91667C1.75434 37.9707 0 36.195 0 34.0064V4.93499C0 2.74637 1.75434 0.970703 3.91667 0.970703H43.0833C45.2457 0.970703 47 2.74637 47 4.93499ZM12.4436 25.6814L17.6005 12.8636H14.1326L10.9259 21.618L10.575 19.8424L9.43264 13.9455C9.24497 13.1278 8.66562 12.8966 7.94757 12.8636H2.66823L2.61111 13.1196C3.90035 13.4499 5.05087 13.929 6.05451 14.5319L8.97569 25.6814H12.4436ZM20.1464 25.6979L22.2026 12.8636H18.9224L16.8743 25.6979H20.1464ZM31.5618 21.5024C31.5781 20.0406 30.6969 18.9256 28.812 18.0089C27.6615 17.4225 26.9597 17.0261 26.9597 16.4232C26.976 15.8781 27.5554 15.3165 28.8446 15.3165C29.9135 15.2917 30.6969 15.5477 31.2844 15.8037L31.5781 15.9441L32.0269 13.1691C31.3823 12.9131 30.3542 12.6241 29.0894 12.6241C25.85 12.6241 23.5734 14.3749 23.5571 16.8691C23.5326 18.7109 25.1891 19.735 26.4293 20.3544C27.6941 20.9821 28.1266 21.395 28.1266 21.9484C28.1102 22.8073 27.0984 23.2037 26.1601 23.2037C24.8545 23.2037 24.1528 22.9973 23.0839 22.5182L22.6514 22.3118L22.1944 25.1941C22.9615 25.5493 24.3812 25.8631 25.85 25.8796C29.2934 25.8879 31.5373 24.1618 31.5618 21.5024ZM43.0833 25.6979L40.4396 12.8636H37.9019C37.1186 12.8636 36.5229 13.0948 36.1884 13.929L31.317 25.6979H34.7604C34.7604 25.6979 35.3234 24.1122 35.4458 23.7736H39.6562C39.7542 24.2278 40.0479 25.6979 40.0479 25.6979H43.0833Z" fill="white"/>
</g>
<defs>
<clipPath id="clip0_1486_1392">
<rect width="47" height="37" fill="white" transform="translate(0 0.970703)"/>
</clipPath>
</defs>
</svg>
