<svg width="14" height="13" viewBox="0 0 14 13" fill="none" xmlns="http://www.w3.org/2000/svg">
<path d="M1.21431 3.61307e-08C1.53557 -8.12296e-05 1.84382 0.136928 2.07104 0.380688L6.91588 5.58069C7.02839 5.70139 7.1176 5.84473 7.17849 6.00246C7.2394 6.1602 7.27077 6.32925 7.27078 6.5C7.27078 6.67079 7.23941 6.83999 7.17849 6.99777C7.11759 7.1555 7.02839 7.29883 6.91588 7.41954L2.07104 12.6195C1.95824 12.7405 1.82421 12.8366 1.6768 12.9019C1.52937 12.9671 1.37125 13.0004 1.21175 13C0.972131 13.0001 0.737803 12.924 0.538528 12.7811C0.339297 12.6383 0.183902 12.4353 0.0921924 12.1978C0.000486719 11.9602 -0.0234569 11.6987 0.0232964 11.4464C0.07007 11.1942 0.185556 10.9625 0.355018 10.7807L4.34631 6.5L0.358208 2.21954C0.131053 1.9758 0.00339364 1.64521 0.00330799 1.30046C0.00323228 0.955649 0.130675 0.624791 0.357783 0.380916C0.584889 0.137047 0.893053 8.76922e-05 1.21431 3.61307e-08Z" fill="#DBA783"/>
<path d="M7.6142 3.61307e-08C7.93543 -5.7338e-05 8.24352 0.136949 8.47072 0.380688L12.1739 4.35509C12.7029 4.92449 13 5.69586 13 6.5C13 7.30417 12.7029 8.07571 12.1739 8.64513L8.47072 12.6195C8.35791 12.7405 8.22392 12.8366 8.07648 12.9019C7.92907 12.9671 7.77111 13.0004 7.61165 13C7.37201 13.0001 7.1377 12.924 6.93842 12.7811C6.73917 12.6383 6.58381 12.4353 6.49209 12.1978C6.40038 11.9602 6.37643 11.6987 6.42319 11.4464C6.46997 11.1942 6.58542 10.9625 6.75491 10.7807L10.4579 6.80697C10.4955 6.76672 10.5253 6.7188 10.5457 6.66615C10.566 6.61351 10.5765 6.55699 10.5765 6.5C10.5765 6.44305 10.566 6.38668 10.5457 6.33407C10.5253 6.28143 10.4955 6.23351 10.4579 6.19326L6.7581 2.21954C6.53091 1.97579 6.40307 1.64523 6.40299 1.30046C6.40291 0.955646 6.53056 0.624792 6.75768 0.380916C6.98478 0.137072 7.29296 8.12964e-05 7.6142 3.61307e-08Z" fill="#DBA783"/>
</svg>
