<svg width="25" height="24" viewBox="0 0 25 24" fill="none" xmlns="http://www.w3.org/2000/svg">
<g clip-path="url(#clip0_2179_363)">
<path d="M18.2269 0.499878C17.0544 0.517869 15.9074 0.840757 14.9019 1.43593C13.8964 2.03111 13.0679 2.8775 12.5 3.88963C11.9321 2.8775 11.1036 2.03111 10.0981 1.43593C9.09256 0.840757 7.94564 0.517869 6.77314 0.499878C4.90404 0.57999 3.14305 1.38661 1.87489 2.74352C0.606735 4.10042 -0.0655042 5.89732 0.00504078 7.74163C0.00504078 14.7009 11.4129 22.7387 11.8982 23.0798L12.5 23.4999L13.1018 23.0798C13.5871 22.7408 24.995 14.7009 24.995 7.74163C25.0655 5.89732 24.3933 4.10042 23.1251 2.74352C21.8569 1.38661 20.096 0.57999 18.2269 0.499878Z" fill="#DBA783"/>
</g>
<defs>
<clipPath id="clip0_2179_363">
<rect width="25" height="23" fill="white" transform="translate(0 0.5)"/>
</clipPath>
</defs>
</svg>
