<svg width="25" height="26" viewBox="0 0 25 26" fill="none" xmlns="http://www.w3.org/2000/svg">
<g clip-path="url(#clip0_2179_365)">
<path d="M23.6594 4.74687C23.3664 4.39525 22.9995 4.11245 22.5849 3.91856C22.1703 3.72467 21.7181 3.62444 21.2604 3.625H4.41875L4.375 3.25937C4.28547 2.49939 3.92019 1.79868 3.34843 1.29008C2.77666 0.781483 2.03815 0.500356 1.27292 0.5L1.04167 0.5C0.7654 0.5 0.500448 0.609747 0.305097 0.805097C0.109747 1.00045 0 1.2654 0 1.54167C0 1.81793 0.109747 2.08289 0.305097 2.27824C0.500448 2.47359 0.7654 2.58333 1.04167 2.58333H1.27292C1.52806 2.58337 1.77431 2.67704 1.96497 2.84658C2.15563 3.01612 2.27744 3.24974 2.30729 3.50312L3.74063 15.6906C3.88943 16.9581 4.49841 18.1269 5.45199 18.975C6.40556 19.8232 7.63735 20.2917 8.91354 20.2917H19.7917C20.0679 20.2917 20.3329 20.1819 20.5282 19.9866C20.7236 19.7912 20.8333 19.5263 20.8333 19.25C20.8333 18.9737 20.7236 18.7088 20.5282 18.5134C20.3329 18.3181 20.0679 18.2083 19.7917 18.2083H8.91354C8.26881 18.2065 7.64042 18.0053 7.11452 17.6324C6.58862 17.2594 6.19095 16.7329 5.97604 16.125H18.3927C19.6138 16.1251 20.7962 15.6961 21.7332 14.913C22.6701 14.1298 23.3021 13.0424 23.5188 11.8406L24.3365 7.30521C24.4181 6.85522 24.3997 6.39278 24.2827 5.95066C24.1657 5.50855 23.9529 5.09758 23.6594 4.74687Z" fill="#919191"/>
<path d="M7.29183 25.5C8.44242 25.5 9.37516 24.5672 9.37516 23.4166C9.37516 22.2661 8.44242 21.3333 7.29183 21.3333C6.14124 21.3333 5.2085 22.2661 5.2085 23.4166C5.2085 24.5672 6.14124 25.5 7.29183 25.5Z" fill="#919191"/>
<path d="M17.7083 25.5C18.8589 25.5 19.7917 24.5672 19.7917 23.4166C19.7917 22.2661 18.8589 21.3333 17.7083 21.3333C16.5577 21.3333 15.625 22.2661 15.625 23.4166C15.625 24.5672 16.5577 25.5 17.7083 25.5Z" fill="#919191"/>
</g>
<defs>
<clipPath id="clip0_2179_365">
<rect width="25" height="25" fill="white" transform="translate(0 0.5)"/>
</clipPath>
</defs>
</svg>
