<svg xmlns="http://www.w3.org/2000/svg" viewBox="0 0 48 48" width="24px" height="24px">
  <path fill="#4285F4" d="M24 9.5c3.94 0 6.64 1.7 8.16 3.12l5.95-5.95C34.48 3.42 29.72 1.5 24 1.5 14.79 1.5 7.06 7.63 4.44 15.93l6.97 5.42C12.8 15.13 17.91 9.5 24 9.5z"/>
  <path fill="#34A853" d="M46.15 24.47c0-1.6-.13-3.16-.37-4.66H24v9.05h12.55c-.54 2.88-2.17 5.33-4.64 6.97l7.19 5.56c4.21-3.89 6.65-9.62 6.65-16.92z"/>
  <path fill="#FBBC05" d="M11.41 28.1a14.51 14.51 0 0 1 0-8.2l-6.97-5.42a23.94 23.94 0 0 0 0 19.04l6.97-5.42z"/>
  <path fill="#EA4335" d="M24 46.5c6.48 0 11.92-2.13 15.9-5.8l-7.19-5.56c-2 1.36-4.58 2.17-8.71 2.17-6.09 0-11.2-5.63-12.59-12.03l-6.97 5.42C7.06 40.37 14.79 46.5 24 46.5z"/>
  <path fill="none" d="M1.5 1.5h45v45h-45z"/>
</svg>
