<svg width="110" height="45" viewBox="0 0 110 45" fill="none" xmlns="http://www.w3.org/2000/svg">
<g clip-path="url(#clip0_2117_3765)">
<mask id="mask0_2117_3765" style="mask-type:luminance" maskUnits="userSpaceOnUse" x="0" y="0" width="110" height="45">
<path d="M110 0H0V45H110V0Z" fill="white"/>
</mask>
<g mask="url(#mask0_2117_3765)">
<path d="M49.2174 31.0351C49.2174 33.0525 49.3789 36.0002 49.505 36.5109H43.9092C43.7477 36.0912 43.6216 34.9738 43.6115 34.4379C42.8445 35.6311 41.4064 37.0013 37.6624 37.0013C32.561 37.0013 30.4115 33.644 30.4115 30.3525C30.4115 25.5238 34.2817 23.294 40.483 23.294H43.5005V21.9997C43.5005 20.4929 42.9606 19.0115 40.2459 19.0115C37.7734 19.0115 37.2335 20.0631 36.961 21.6002H31.3904C31.7083 17.8334 34.0344 14.7845 40.4628 14.8199C46.1294 14.8553 49.2124 17.0749 49.2124 22.121V31.0351H49.2174ZM43.5106 26.8637H41.1239C37.5968 26.8637 36.2849 27.9407 36.2849 29.9884C36.2849 31.5255 37.2234 32.8148 39.3275 32.8148C43.0514 32.8148 43.5055 30.221 43.5055 27.4199V26.8637H43.5106Z" fill="#6F9B8C"/>
<path d="M60.3738 24.2597C61.928 22.1462 64.7385 18.8546 67.655 15.3153H74.3711L66.9991 23.3192L75.0674 36.5108H68.4321L63.0784 27.081L60.3688 29.7102V36.5108H54.5105V6.61865H60.3688V24.2597H60.3738Z" fill="#6F9B8C"/>
<path d="M79.4523 26.2923L79.2151 13.1765V8.2771H85.4569V13.2119L85.2601 26.2923H79.4523ZM79.4018 36.5159V29.7305H85.1541V36.5159H79.4018Z" fill="#6F9B8C"/>
<path d="M95.4275 15.3152C97.6124 22.6264 99.5197 29.1539 99.8528 31.1157H99.8931C100.352 28.977 101.589 24.2292 104.117 15.3152H109.95L102.84 37.1225C100.817 43.2202 99.1312 45.0405 94.05 45.0405C93.5303 45.0405 92.3193 45 91.305 44.8837V40.1663C91.7037 40.2118 92.3445 40.2523 92.8188 40.2523C94.9683 40.2523 96.0532 39.5039 97.3904 37.1629L89.6904 15.3202H95.4225L95.4275 15.3152Z" fill="#6F9B8C"/>
<path d="M13.9771 7.86743C5.22248 7.86743 0.111008 14.1775 0.111008 22.3938C0.111008 30.6101 4.73807 36.9202 13.5835 36.9202C22.4289 36.9202 27.4445 30.1551 27.4445 22.2978C27.4445 13.6568 22.222 7.86743 13.9771 7.86743ZM19.7647 24.4264C19.6638 25.5995 19.4468 26.7523 19.0027 27.8495C18.372 29.4169 17.2771 30.5545 15.8087 31.3534C15.2587 31.6517 14.7087 31.9652 14.1587 32.2686C13.7752 32.4759 13.3766 32.5011 12.9931 32.2938C12.2564 31.8944 11.5197 31.4899 10.8032 31.0601C9.11789 30.0438 8.16422 28.5017 7.68991 26.6259C7.44266 25.6399 7.31651 24.6438 7.28119 23.6073H19.8202C19.8 23.8854 19.7899 24.1584 19.7647 24.4315V24.4264ZM21.1018 20.9023C21.1018 21.7466 20.5821 22.2674 19.7445 22.2674C17.4183 22.2674 15.0922 22.2674 12.761 22.2674C10.9596 22.2674 9.15321 22.2674 7.35183 22.2674C6.51422 22.2674 5.98945 21.7466 5.98945 20.9023C5.98945 20.4169 5.96926 19.9264 6.00963 19.4461C6.09036 18.5562 6.52936 17.8332 7.12981 17.2011C8.13899 16.1393 9.39541 15.4972 10.783 15.0978C11.222 14.9714 11.6761 14.9006 12.1252 14.8096C12.1757 14.7995 12.2261 14.7843 12.2816 14.7691V12.777H14.7945V14.7691C15.1527 14.8399 15.5009 14.8955 15.844 14.9815C17.4083 15.3657 18.8211 16.023 19.9514 17.2062C20.7133 18 21.1573 18.9304 21.0968 20.0629C21.0816 20.3461 21.0968 20.6292 21.0968 20.9124L21.1018 20.9023Z" fill="#6F9B8C"/>
</g>
</g>
<defs>
<clipPath id="clip0_2117_3765">
<rect width="110" height="45" fill="white"/>
</clipPath>
</defs>
</svg>
