<svg width="28" height="29" viewBox="0 0 28 29" fill="none" xmlns="http://www.w3.org/2000/svg">
<path d="M17.1624 8.94662L11.6663 14.4442L17.1186 19.8958L15.4686 21.5457L10.0171 16.0942C9.57969 15.6567 9.33353 15.0629 9.33353 14.4442C9.33353 13.8255 9.57969 13.2318 10.0171 12.7942L15.5163 7.29741L17.1624 8.94662Z" fill="#9FA79A"/>
<path fill-rule="evenodd" clip-rule="evenodd" d="M13.9999 0.444336C16.7688 0.444337 19.4757 1.26537 21.778 2.80369C24.0801 4.34198 25.8746 6.52842 26.9342 9.08646C27.9938 11.6446 28.2712 14.4598 27.7311 17.1755C27.1909 19.8912 25.857 22.3855 23.899 24.3434C21.9411 26.3013 19.4468 27.6352 16.7311 28.1754C14.0154 28.7156 11.2003 28.4381 8.64213 27.3785C6.08408 26.3189 3.89765 24.5245 2.35936 22.2223C0.821029 19.92 0 17.2132 0 14.4442C0.00401467 10.7325 1.48004 7.17361 4.10466 4.54899C6.72928 1.92438 10.2881 0.448351 13.9999 0.444336ZM13.9999 2.77791C11.6925 2.77791 9.43647 3.46158 7.51791 4.74352C5.59943 6.02545 4.10407 7.84771 3.22107 9.97942C2.33808 12.1111 2.10769 14.457 2.55779 16.72C3.00795 18.9831 4.11914 21.0618 5.75074 22.6934C7.38234 24.325 9.46104 25.4362 11.7241 25.8863C13.9872 26.3364 16.333 26.1061 18.4647 25.2231C20.5964 24.3401 22.4187 22.8447 23.7006 20.9262C24.9826 19.0077 25.6662 16.7517 25.6662 14.4442C25.6628 11.3511 24.4331 8.38537 22.2459 6.1982C20.0588 4.01103 17.093 2.78131 13.9999 2.77791Z" fill="#9FA79A"/>
</svg>
