<svg width="28" height="28" viewBox="0 0 28 28" fill="none" xmlns="http://www.w3.org/2000/svg">
<path fill-rule="evenodd" clip-rule="evenodd" d="M13.9998 -0.000244141C17.7116 0.00377046 21.2706 1.47989 23.8953 4.1045C26.5199 6.72917 27.996 10.2881 28 13.9999C28 16.7689 27.179 19.4758 25.6406 21.7782C24.1022 24.0804 21.9158 25.8749 19.3577 26.9345C16.7995 27.9941 13.9843 28.2716 11.2685 27.7314C8.55281 27.1912 6.0584 25.8572 4.10047 23.8993C2.14257 21.9414 0.809365 19.4469 0.269168 16.7312C-0.271033 14.0155 0.00563114 11.2003 1.06527 8.64206C2.12489 6.08399 3.91941 3.89749 6.22159 2.35916C8.52385 0.820839 11.2309 -0.000204323 13.9998 -0.000244141ZM10.017 12.3499C9.57951 12.7875 9.33413 13.3812 9.33413 13.9999C9.33413 14.6187 9.57951 15.2124 10.017 15.65L15.4686 21.1016L17.1186 19.4516L11.667 13.9999L17.1631 8.50221L15.517 6.85297L10.017 12.3499Z" fill="#919191"/>
</svg>
