<svg width="28" height="28" viewBox="0 0 28 28" fill="none" xmlns="http://www.w3.org/2000/svg">
<g clip-path="url(#clip0_94_225)">
<path d="M0 14C0 16.7689 0.821086 19.4757 2.35943 21.778C3.89776 24.0803 6.08427 25.8747 8.64243 26.9343C11.2006 27.9939 14.0155 28.2712 16.7313 27.731C19.447 27.1908 21.9416 25.8574 23.8995 23.8995C25.8574 21.9416 27.1908 19.447 27.731 16.7313C28.2712 14.0155 27.9939 11.2006 26.9343 8.64243C25.8747 6.08427 24.0803 3.89776 21.778 2.35943C19.4757 0.821086 16.7689 0 14 0C10.2882 0.00401459 6.72958 1.4803 4.10494 4.10494C1.4803 6.72958 0.00401459 10.2882 0 14ZM17.983 12.3503C18.4204 12.7879 18.6662 13.3813 18.6662 14C18.6662 14.6187 18.4204 15.2121 17.983 15.6497L12.5312 21.1015L10.8815 19.4518L16.3333 14L10.8372 8.50267L12.4833 6.853L17.983 12.3503Z" fill="#919191"/>
</g>
<defs>
<clipPath id="clip0_94_225">
<rect width="28" height="28" fill="white"/>
</clipPath>
</defs>
</svg>
