<svg width="28" height="29" viewBox="0 0 28 29" fill="none" xmlns="http://www.w3.org/2000/svg">
<path d="M28 14.4443C28 17.2133 27.1789 19.92 25.6406 22.2223C24.1022 24.5246 21.9157 26.319 19.3576 27.3786C16.7994 28.4383 13.9845 28.7155 11.2687 28.1753C8.55301 27.6351 6.05844 26.3018 4.10051 24.3438C2.14258 22.3859 0.809205 19.8913 0.269012 17.1756C-0.271181 14.4599 0.006066 11.6449 1.06569 9.08677C2.12532 6.5286 3.91973 4.3421 6.22202 2.80376C8.52431 1.26542 11.2311 0.444336 14 0.444336C17.7118 0.448351 21.2704 1.92464 23.8951 4.54927C26.5197 7.17391 27.996 10.7325 28 14.4443ZM2.33334 14.4443C2.33334 16.7518 3.01758 19.0074 4.29953 20.926C5.58148 22.8446 7.40356 24.3399 9.53536 25.2229C11.6672 26.106 14.0129 26.337 16.2761 25.8868C18.5392 25.4367 20.618 24.3255 22.2496 22.6939C23.8812 21.0623 24.9923 18.9835 25.4425 16.7204C25.8927 14.4573 25.6616 12.1115 24.7786 9.97969C23.8956 7.84789 22.4002 6.02581 20.4817 4.74386C18.5631 3.46191 16.3075 2.77767 14 2.77767C10.9069 2.78107 7.94137 4.01132 5.75418 6.19851C3.56699 8.3857 2.33674 11.3512 2.33334 14.4443ZM17.983 12.7947L12.4833 7.29734L10.8372 8.947L16.3333 14.4443L10.8815 19.8962L12.5312 21.5458L17.983 16.094C18.4204 15.6564 18.6662 15.0631 18.6662 14.4443C18.6662 13.8256 18.4204 13.2322 17.983 12.7947Z" fill="#9FA79A"/>
</svg>
