<svg width="41" height="38" viewBox="0 0 41 38" fill="none" xmlns="http://www.w3.org/2000/svg">
<path d="M40.9721 19C40.9681 17.8861 40.7104 16.7875 40.2181 15.7862C39.7257 14.7849 39.0116 13.9068 38.129 13.2174C39.3501 12.2631 40.2402 10.9548 40.6753 9.47498C41.1104 7.99513 41.0687 6.41756 40.556 4.96233C40.0434 3.5071 39.0853 2.2468 37.8155 1.35724C36.5457 0.467684 35.0275 -0.00676883 33.4727 7.29681e-05H8.47456C6.91974 -0.00676883 5.40153 0.467684 4.13174 1.35724C2.86195 2.2468 1.9039 3.5071 1.39124 4.96233C0.878579 6.41756 0.836879 7.99513 1.27195 9.47498C1.70703 10.9548 2.59718 12.2631 3.81824 13.2174C2.93255 13.904 2.2162 14.7815 1.72354 15.7835C1.23088 16.7854 0.974835 17.8854 0.974835 19C0.974835 20.1146 1.23088 21.2146 1.72354 22.2165C2.2162 23.2185 2.93255 24.096 3.81824 24.7826C2.59718 25.7369 1.70703 27.0452 1.27195 28.525C0.836879 30.0049 0.878579 31.5824 1.39124 33.0377C1.9039 34.4929 2.86195 35.7532 4.13174 36.6428C5.40153 37.5323 6.91974 38.0068 8.47456 37.9999H33.4727C35.0275 38.0068 36.5457 37.5323 37.8155 36.6428C39.0853 35.7532 40.0434 34.4929 40.556 33.0377C41.0687 31.5824 41.1104 30.0049 40.6753 28.525C40.2402 27.0452 39.3501 25.7369 38.129 24.7826C39.0116 24.0932 39.7257 23.2151 40.2181 22.2138C40.7104 21.2125 40.9681 20.1139 40.9721 19ZM4.3082 7.43483C4.3082 6.33937 4.74716 5.28878 5.5285 4.51418C6.30984 3.73958 7.36957 3.30441 8.47456 3.30441H9.30783V4.95658C9.30783 5.39476 9.48341 5.81499 9.79595 6.12483C10.1085 6.43468 10.5324 6.60874 10.9744 6.60874C11.4164 6.60874 11.8403 6.43468 12.1528 6.12483C12.4653 5.81499 12.6409 5.39476 12.6409 4.95658V3.30441H15.974V4.95658C15.974 5.39476 16.1496 5.81499 16.4621 6.12483C16.7747 6.43468 17.1986 6.60874 17.6405 6.60874C18.0825 6.60874 18.5064 6.43468 18.819 6.12483C19.1315 5.81499 19.3071 5.39476 19.3071 4.95658V3.30441H33.4727C34.5777 3.30441 35.6374 3.73958 36.4188 4.51418C37.2001 5.28878 37.6391 6.33937 37.6391 7.43483C37.6391 8.53028 37.2001 9.58087 36.4188 10.3555C35.6374 11.1301 34.5777 11.5652 33.4727 11.5652H8.47456C7.36957 11.5652 6.30984 11.1301 5.5285 10.3555C4.74716 9.58087 4.3082 8.53028 4.3082 7.43483ZM37.6391 30.5652C37.6391 31.6606 37.2001 32.7112 36.4188 33.4858C35.6374 34.2604 34.5777 34.6956 33.4727 34.6956H8.47456C7.36957 34.6956 6.30984 34.2604 5.5285 33.4858C4.74716 32.7112 4.3082 31.6606 4.3082 30.5652C4.3082 29.4697 4.74716 28.4191 5.5285 27.6445C6.30984 26.8699 7.36957 26.4348 8.47456 26.4348H9.30783V28.0869C9.30783 28.5251 9.48341 28.9453 9.79595 29.2552C10.1085 29.565 10.5324 29.7391 10.9744 29.7391C11.4164 29.7391 11.8403 29.565 12.1528 29.2552C12.4653 28.9453 12.6409 28.5251 12.6409 28.0869V26.4348H15.974V28.0869C15.974 28.5251 16.1496 28.9453 16.4621 29.2552C16.7747 29.565 17.1986 29.7391 17.6405 29.7391C18.0825 29.7391 18.5064 29.565 18.819 29.2552C19.1315 28.9453 19.3071 28.5251 19.3071 28.0869V26.4348H33.4727C34.5777 26.4348 35.6374 26.8699 36.4188 27.6445C37.2001 28.4191 37.6391 29.4697 37.6391 30.5652ZM8.47456 23.1304C7.36957 23.1304 6.30984 22.6952 5.5285 21.9206C4.74716 21.146 4.3082 20.0955 4.3082 19C4.3082 17.9045 4.74716 16.854 5.5285 16.0794C6.30984 15.3047 7.36957 14.8696 8.47456 14.8696H9.30783V16.5217C9.30783 16.9599 9.48341 17.3802 9.79595 17.69C10.1085 17.9998 10.5324 18.1739 10.9744 18.1739C11.4164 18.1739 11.8403 17.9998 12.1528 17.69C12.4653 17.3802 12.6409 16.9599 12.6409 16.5217V14.8696H15.974V16.5217C15.974 16.9599 16.1496 17.3802 16.4621 17.69C16.7747 17.9998 17.1986 18.1739 17.6405 18.1739C18.0825 18.1739 18.5064 17.9998 18.819 17.69C19.1315 17.3802 19.3071 16.9599 19.3071 16.5217V14.8696H33.4727C34.5777 14.8696 35.6374 15.3047 36.4188 16.0794C37.2001 16.854 37.6391 17.9045 37.6391 19C37.6391 20.0955 37.2001 21.146 36.4188 21.9206C35.6374 22.6952 34.5777 23.1304 33.4727 23.1304H8.47456Z" fill="#6F9B8C"/>
</svg>
