<svg width="14" height="14" viewBox="0 0 14 14" fill="none" xmlns="http://www.w3.org/2000/svg">
<path d="M1.71431 0.911133C2.03557 0.911052 2.34382 1.04806 2.57104 1.29182L7.41588 6.49182C7.52839 6.61252 7.6176 6.75586 7.67849 6.91359C7.7394 7.07133 7.77077 7.24038 7.77078 7.41113C7.77078 7.58192 7.73941 7.75112 7.67849 7.9089C7.61759 8.06663 7.52839 8.20997 7.41588 8.33067L2.57104 13.5307C2.45824 13.6517 2.32421 13.7477 2.1768 13.813C2.02937 13.8783 1.87125 13.9115 1.71175 13.9111C1.47213 13.9112 1.2378 13.8351 1.03853 13.6923C0.839297 13.5494 0.683902 13.3465 0.592192 13.1089C0.500487 12.8713 0.476543 12.6098 0.523296 12.3576C0.57007 12.1053 0.685556 11.8736 0.855018 11.6918L4.84631 7.41113L0.858208 3.13067C0.631053 2.88693 0.503394 2.55634 0.503308 2.21159C0.503232 1.86678 0.630675 1.53592 0.857783 1.29205C1.08489 1.04818 1.39305 0.911221 1.71431 0.911133Z" fill="#DBA783"/>
<path d="M8.1142 0.911133C8.43543 0.911075 8.74352 1.04808 8.97072 1.29182L12.6739 5.26622C13.2029 5.83562 13.5 6.607 13.5 7.41113C13.5 8.21531 13.2029 8.98684 12.6739 9.55627L8.97072 13.5307C8.85791 13.6517 8.72392 13.7477 8.57648 13.813C8.42907 13.8783 8.27111 13.9115 8.11165 13.9111C7.87201 13.9112 7.6377 13.8351 7.43842 13.6923C7.23917 13.5494 7.08381 13.3465 6.99209 13.1089C6.90038 12.8713 6.87643 12.6098 6.92319 12.3576C6.96997 12.1053 7.08542 11.8736 7.25491 11.6918L10.9579 7.7181C10.9955 7.67785 11.0253 7.62993 11.0457 7.57728C11.066 7.52464 11.0765 7.46812 11.0765 7.41113C11.0765 7.35418 11.066 7.29781 11.0457 7.24521C11.0253 7.19256 10.9955 7.14464 10.9579 7.10439L7.2581 3.13067C7.03091 2.88692 6.90307 2.55637 6.90299 2.21159C6.90291 1.86678 7.03056 1.53592 7.25768 1.29205C7.48478 1.0482 7.79296 0.911214 8.1142 0.911133Z" fill="#DBA783"/>
</svg>
