<svg width="22" height="22" viewBox="0 0 22 22" fill="none" xmlns="http://www.w3.org/2000/svg">
<path d="M17.9989 0.686533C18.9143 -0.228482 20.3982 -0.228665 21.3135 0.686533C22.2288 1.60191 22.2288 3.08659 21.3135 4.00197L14.3154 11L21.3135 17.998C22.2288 18.9134 22.2288 20.3981 21.3135 21.3135C20.3982 22.2287 18.9143 22.2285 17.9989 21.3135L10.9999 14.3145L4.00183 21.3135C3.08644 22.2288 1.60175 22.2288 0.686367 21.3135C-0.228858 20.3982 -0.22872 18.9143 0.686367 17.9989L7.68537 11L0.686367 4.00105C-0.228706 3.08567 -0.228872 1.60182 0.686367 0.686533C1.60175 -0.228844 3.08644 -0.228844 4.00183 0.686533L10.9999 7.68456L17.9989 0.686533Z" fill="white"/>
</svg>
