<svg width="40" height="40" viewBox="0 0 40 40" fill="none" xmlns="http://www.w3.org/2000/svg">
<path d="M20 34.625C20 35.5236 19.272 36.25 18.375 36.25H8.625C4.14488 36.25 0.5 32.6051 0.5 28.125V8.625C0.5 4.14488 4.14488 0.5 8.625 0.5H28.125C32.6051 0.5 36.25 4.14488 36.25 8.625V18.375C36.25 19.2736 35.522 20 34.625 20C33.728 20 33 19.2736 33 18.375V8.625C33 5.93725 30.8127 3.75 28.125 3.75H8.625C5.93725 3.75 3.75 5.93725 3.75 8.625V19.9334L8.313 15.3704C10.8025 12.8792 14.8536 12.8792 17.3447 15.3704L26.0239 24.0495C26.6593 24.6849 26.6593 25.7119 26.0239 26.3472C25.707 26.6641 25.291 26.8234 24.875 26.8234C24.459 26.8234 24.043 26.6641 23.7261 26.3472L15.047 17.6681C13.825 16.4477 11.836 16.4461 10.6108 17.6681L3.75 24.5289V28.125C3.75 30.8127 5.93725 33 8.625 33H18.375C19.272 33 20 33.7264 20 34.625ZM24.875 6.1875C27.5627 6.1875 29.75 8.37475 29.75 11.0625C29.75 13.7502 27.5627 15.9375 24.875 15.9375C22.1873 15.9375 20 13.7502 20 11.0625C20 8.37475 22.1873 6.1875 24.875 6.1875ZM24.875 9.4375C23.9796 9.4375 23.25 10.1655 23.25 11.0625C23.25 11.9595 23.9796 12.6875 24.875 12.6875C25.7704 12.6875 26.5 11.9595 26.5 11.0625C26.5 10.1655 25.7704 9.4375 24.875 9.4375ZM37.875 29.75H33V24.875C33 23.9764 32.272 23.25 31.375 23.25C30.478 23.25 29.75 23.9764 29.75 24.875V29.75H24.875C23.978 29.75 23.25 30.4764 23.25 31.375C23.25 32.2736 23.978 33 24.875 33H29.75V37.875C29.75 38.7736 30.478 39.5 31.375 39.5C32.272 39.5 33 38.7736 33 37.875V33H37.875C38.772 33 39.5 32.2736 39.5 31.375C39.5 30.4764 38.772 29.75 37.875 29.75Z" fill="#919191"/>
</svg>
