<svg width="41" height="40" viewBox="0 0 41 40" fill="none" xmlns="http://www.w3.org/2000/svg">
<path d="M25.9726 31.6667H15.973V28.3333H25.9726V31.6667ZM40.972 21.6667V40H0.973633L1.00863 21.3317L4.58515 3.925C5.11513 1.63333 7.16504 0 9.46828 0H32.479C34.8289 0 36.8321 1.6 37.3554 3.89167L40.972 21.6667ZM32.639 12.35L34.0289 20H37.2605L34.0939 4.59667C33.9406 3.92 33.3473 3.43 32.6373 3.36167L32.639 12.35ZM12.6198 10H29.3058V3.33333H12.6365L12.6198 10ZM11.3032 20H30.6474L29.4541 13.3333H12.5148L11.3032 20ZM4.68348 20H7.91501L9.30662 12.35V3.36333C8.62498 3.44 7.99667 3.96 7.84001 4.63667L4.68348 20ZM37.6388 23.3333H4.30683V36.6667H37.6388V23.3333Z" fill="#6F9B8C"/>
</svg>
