<svg width="41" height="40" viewBox="0 0 41 40" fill="none" xmlns="http://www.w3.org/2000/svg">
<path d="M35.9736 40C33.217 40 30.9736 37.7571 30.9736 35.0009V21.6701C30.9736 20.7519 30.227 20.0038 29.307 20.0038H12.6403C11.7203 20.0038 10.9736 20.7519 10.9736 21.6701V35.0009C10.9736 37.7571 8.7303 40 5.97363 40C3.21697 40 0.973633 37.7571 0.973633 35.0009V16.2111C0.973633 13.4366 2.34697 10.8555 4.6453 9.30409L16.312 1.43223C19.1436 -0.47741 22.8036 -0.47741 25.6353 1.43223L37.302 9.30409C39.6003 10.8555 40.9736 13.4366 40.9736 16.2111V35.0009C40.9736 37.7571 38.7303 40 35.9736 40ZM12.6403 16.671H29.307C32.0636 16.671 34.307 18.914 34.307 21.6701V35.0009C34.307 35.9191 35.0536 36.6673 35.9736 36.6673C36.8936 36.6673 37.6403 35.9191 37.6403 35.0009V16.2111C37.6403 14.5464 36.817 12.9967 35.437 12.0669L23.7703 4.19505C22.0703 3.04859 19.877 3.04859 18.1786 4.19505L6.5103 12.0669C5.1303 12.9967 4.30697 14.5464 4.30697 16.2111V35.0009C4.30697 35.9191 5.05363 36.6673 5.97363 36.6673C6.89363 36.6673 7.6403 35.9191 7.6403 35.0009V21.6701C7.6403 18.914 9.88363 16.671 12.6403 16.671ZM19.307 38.3336V35.0009C19.307 34.0811 18.562 33.3346 17.6403 33.3346H15.9736C15.052 33.3346 14.307 34.0811 14.307 35.0009V38.3336C14.307 39.2535 15.052 40 15.9736 40H17.6403C18.562 40 19.307 39.2535 19.307 38.3336ZM19.307 28.3355V25.0028C19.307 24.083 18.562 23.3365 17.6403 23.3365H15.9736C15.052 23.3365 14.307 24.083 14.307 25.0028V28.3355C14.307 29.2553 15.052 30.0019 15.9736 30.0019H17.6403C18.562 30.0019 19.307 29.2553 19.307 28.3355ZM27.6403 38.3336V35.0009C27.6403 34.0811 26.8953 33.3346 25.9736 33.3346H24.307C23.3853 33.3346 22.6403 34.0811 22.6403 35.0009V38.3336C22.6403 39.2535 23.3853 40 24.307 40H25.9736C26.8953 40 27.6403 39.2535 27.6403 38.3336Z" fill="#6F9B8C"/>
</svg>
