<?xml version="1.0" encoding="UTF-8"?>
<svg id="_圖層_2" data-name="圖層 2" xmlns="http://www.w3.org/2000/svg" viewBox="0 0 225.14 109">
  <defs>
    <style>
      .cls-1 {
        fill: #719a8b;
        stroke-width: 0px;
      }
    </style>
  </defs>
  <g id="_圖層_1-2" data-name="圖層 1">
    <g>
      <g>
        <path class="cls-1" d="m101.05,48.29c0,3.99.32,9.82.57,10.83h-11.09c-.32-.83-.57-3.04-.59-4.1-1.52,2.36-4.37,5.07-11.79,5.07-10.11,0-14.37-6.64-14.37-13.15,0-9.55,7.67-13.96,19.96-13.96h5.98v-2.56c0-2.98-1.07-5.91-6.45-5.91-4.9,0-5.97,2.08-6.51,5.12h-11.04c.63-7.45,5.24-13.48,17.98-13.41,11.23.07,17.34,4.46,17.34,14.44v17.63Zm-11.31-8.25h-4.73c-6.99,0-9.59,2.13-9.59,6.18,0,3.04,1.86,5.59,6.03,5.59,7.38,0,8.28-5.13,8.28-10.67v-1.1Z"/>
        <path class="cls-1" d="m123.16,34.89c3.08-4.18,8.65-10.69,14.43-17.69h13.31l-14.61,15.83,15.99,26.09h-13.15l-10.61-18.65-5.37,5.2v13.45h-11.61V0h11.61v34.89Z"/>
        <path class="cls-1" d="m160.97,38.91l-.47-25.94V3.28h12.37v9.76l-.39,25.87h-11.51Zm-.1,20.22v-13.42h11.4v13.42h-11.4Z"/>
        <path class="cls-1" d="m192.63,17.2c4.33,14.46,8.11,27.37,8.77,31.25h.08c.91-4.23,3.36-13.62,8.37-31.25h11.56l-14.09,43.13c-4.01,12.06-7.35,15.66-17.42,15.66-1.03,0-3.43-.08-5.44-.31v-9.33c.79.09,2.06.17,3,.17,4.26,0,6.41-1.48,9.06-6.11l-15.26-43.2h11.36Z"/>
        <path class="cls-1" d="m31.21,2.47C13.87,2.47,3.74,14.95,3.74,31.2s9.17,28.73,26.7,28.73,27.47-13.38,27.47-28.92c0-17.09-10.35-28.54-26.69-28.54Zm11.47,32.75c-.2,2.32-.63,4.6-1.51,6.77-1.25,3.1-3.42,5.35-6.33,6.93-1.09.59-2.18,1.21-3.27,1.81-.76.41-1.55.46-2.31.05-1.46-.79-2.92-1.59-4.34-2.44-3.34-2.01-5.23-5.06-6.17-8.77-.49-1.95-.74-3.92-.81-5.97h24.85c-.04.55-.06,1.09-.11,1.63Zm2.65-6.98c0,1.67-1.03,2.7-2.69,2.7-4.61,0-9.22,0-13.84,0-3.57,0-7.15,0-10.72,0-1.66,0-2.7-1.03-2.7-2.7,0-.96-.04-1.93.04-2.88.16-1.76,1.03-3.19,2.22-4.44,2-2.1,4.49-3.37,7.24-4.16.87-.25,1.77-.39,2.66-.57.1-.02.2-.05.31-.08v-3.94h4.98v3.94c.71.14,1.4.25,2.08.42,3.1.76,5.9,2.06,8.14,4.4,1.51,1.57,2.39,3.41,2.27,5.65-.03.56,0,1.12,0,1.68Z"/>
      </g>
      <g>
        <path class="cls-1" d="m0,101.71v-1.7h23.46v1.7H0Z"/>
        <path class="cls-1" d="m46.27,100.85l1.28.68c-.37.73-.82,1.48-1.35,2.23-.54.76-1.11,1.45-1.72,2.09s-1.24,1.16-1.88,1.55c-.09-.26-.22-.58-.4-.95-.18-.37-.34-.67-.48-.92.59-.34,1.17-.76,1.75-1.25s1.11-1.05,1.6-1.65c.48-.6.89-1.2,1.21-1.78Zm3.96-9.58l1.72.68c-.66.92-1.46,1.79-2.4,2.6-.94.81-1.96,1.52-3.07,2.14s-2.23,1.12-3.38,1.52c-.09-.16-.21-.35-.36-.55-.15-.21-.31-.41-.47-.61-.16-.2-.32-.36-.46-.47,1.12-.32,2.21-.75,3.28-1.28,1.07-.53,2.05-1.14,2.95-1.83.9-.69,1.63-1.42,2.2-2.2Zm-7.75,8.41h8.89v1.83h-8.89v-1.83Zm.31-9h18.47v1.85h-18.47v-1.85Zm3.26,6.76h1.96v11.34h-1.96v-11.34Zm1.78,4.12c.18.1.44.27.8.51.36.24.74.49,1.15.76.4.27.77.53,1.11.78.34.25.59.43.75.55l-1.58,1.08c-.19-.18-.45-.4-.77-.67-.32-.27-.67-.55-1.03-.84s-.72-.56-1.07-.81c-.35-.26-.64-.46-.87-.61l1.52-.75Zm7.79-.57l1.45.59c-.41.79-.93,1.57-1.55,2.32-.62.76-1.3,1.45-2.01,2.07s-1.45,1.14-2.18,1.55c-.15-.22-.35-.48-.59-.77-.25-.29-.48-.53-.7-.7.72-.34,1.43-.77,2.15-1.3.71-.53,1.36-1.12,1.96-1.76.59-.65,1.09-1.31,1.49-2Zm-4.67-12.51h2.07v9.82h-2.07v-9.82Zm1.19,11.27h9.53v1.83h-9.53v-1.83Zm.88-8.04c.34.15.81.36,1.42.65.61.29,1.28.61,2,.97.73.36,1.45.72,2.16,1.08.71.36,1.35.69,1.9.98.56.29.96.51,1.21.66l-.68,1.96c-.35-.25-.81-.55-1.39-.89-.57-.34-1.19-.71-1.86-1.11-.67-.4-1.34-.79-2.03-1.18-.68-.39-1.32-.75-1.93-1.09-.6-.34-1.11-.61-1.52-.81l.7-1.21Zm2.55,5.72h1.96v11.54h-1.96v-11.54Zm1.89,3.61c.38.6.85,1.21,1.42,1.82.57.61,1.16,1.17,1.79,1.68.63.51,1.25.94,1.85,1.28-.25.19-.51.44-.79.76-.28.32-.51.61-.7.87-.56-.42-1.14-.96-1.75-1.61-.61-.65-1.19-1.34-1.73-2.08-.54-.74-1-1.47-1.36-2.19l1.28-.53Z"/>
        <path class="cls-1" d="m71.13,102.68l2.11.75c-.44.57-.94,1.14-1.49,1.72-.55.57-1.12,1.11-1.71,1.61-.59.5-1.16.95-1.72,1.34-.13-.13-.31-.29-.53-.46-.22-.18-.45-.35-.68-.51s-.44-.29-.62-.4c.87-.51,1.72-1.13,2.55-1.86.84-.73,1.53-1.46,2.07-2.19Zm9.8-14.22l1.54,1.65c-.98.41-2.07.8-3.26,1.16s-2.43.69-3.73,1c-1.3.31-2.62.58-3.95.83-1.34.24-2.64.47-3.92.67-.04-.25-.13-.55-.25-.89-.12-.34-.25-.63-.36-.85,1.26-.21,2.54-.44,3.84-.69,1.3-.26,2.56-.54,3.8-.84,1.23-.3,2.38-.62,3.46-.97,1.07-.35,2.02-.7,2.84-1.07Zm-12.77,14.18c-.03-.13-.08-.31-.14-.55-.07-.23-.14-.48-.22-.74-.08-.26-.17-.47-.25-.65.4-.06.84-.18,1.32-.35.48-.18,1.06-.42,1.72-.73.38-.18.93-.45,1.65-.81.72-.37,1.54-.81,2.46-1.33.92-.52,1.86-1.1,2.84-1.73.98-.63,1.9-1.29,2.79-1.98l1.56,1.36c-1.97,1.42-4,2.69-6.1,3.79-2.1,1.1-4.17,2.05-6.21,2.84v.04c-.28.1-.51.2-.7.29-.19.09-.36.18-.5.28-.14.1-.21.19-.21.27Zm0,0l-.04-1.56,1.32-.73,13.87-.92c-.03.28-.04.59-.04.94s0,.62.02.83c-2.14.16-3.98.3-5.52.42-1.53.12-2.83.22-3.9.32-1.06.1-1.93.17-2.61.23-.68.06-1.21.11-1.61.16-.4.05-.7.1-.92.15s-.41.11-.57.16Zm1.1-4.69c-.03-.15-.08-.34-.14-.57-.07-.23-.14-.48-.22-.74-.08-.26-.17-.47-.25-.65.28-.04.56-.12.85-.23s.61-.27.98-.47c.26-.13.69-.37,1.27-.72.58-.34,1.21-.76,1.9-1.24.69-.48,1.34-1,1.94-1.54l1.83,1.17c-1.07.81-2.19,1.56-3.37,2.27-1.17.7-2.33,1.29-3.46,1.76v.07c-.26.1-.48.2-.66.3s-.33.2-.46.31-.2.21-.2.3Zm0,0l-.02-1.45,1.1-.62,8.26-.4c-.07.25-.13.54-.18.87-.04.33-.07.6-.09.8-1.5.09-2.75.16-3.76.23-1.01.07-1.84.12-2.48.17-.64.04-1.14.09-1.51.13-.37.04-.65.09-.84.13-.19.04-.35.09-.48.13Zm6.1,2.73h2.11v5.92c0,.54-.07.96-.21,1.27-.14.3-.42.54-.85.71-.41.16-.91.26-1.5.29-.59.03-1.29.04-2.11.04-.04-.31-.14-.66-.3-1.05s-.31-.72-.47-1c.43.01.83.03,1.22.04s.73.02,1.02.01c.29,0,.51-.01.64-.01.18-.01.29-.05.35-.1.06-.05.09-.14.09-.25v-5.88Zm3.76,2.86l1.67-1.1c.57.41,1.18.87,1.82,1.36.64.5,1.24,1,1.81,1.5.56.5,1.03.95,1.4,1.36l-1.81,1.23c-.34-.41-.78-.87-1.32-1.39-.54-.51-1.13-1.03-1.76-1.55-.63-.52-1.23-.99-1.81-1.42Zm.53-5.9l1.72-.88c.54.51,1.09,1.07,1.65,1.66.56.59,1.08,1.18,1.57,1.75s.89,1.08,1.2,1.52l-1.76,1.08c-.29-.45-.69-.98-1.18-1.58-.49-.6-1.02-1.21-1.57-1.83s-1.1-1.19-1.63-1.72Z"/>
        <path class="cls-1" d="m94.42,88.83l2.16.48c-.32,1.13-.71,2.24-1.16,3.34-.45,1.09-.94,2.11-1.46,3.04-.53.93-1.08,1.75-1.65,2.46-.15-.12-.33-.25-.56-.41-.23-.15-.46-.31-.69-.46-.23-.15-.45-.28-.64-.36.6-.65,1.15-1.4,1.65-2.26.5-.86.95-1.79,1.35-2.79.4-1,.74-2.01,1-3.04Zm-3.79,17.41h19.77v2.02h-19.77v-2.02Zm2.47-7.11h15.41v2h-15.41v-2Zm.95-6.45h15.28v2.03h-15.28v-2.03Zm5.39-4.16h2.16v18.74h-2.16v-18.74Z"/>
        <path class="cls-1" d="m114.54,96.36l1.14-1.52c.43.19.9.42,1.41.69.51.27,1.02.54,1.51.79.49.26.89.5,1.2.72l-1.17,1.72c-.29-.22-.68-.47-1.16-.75-.48-.28-.98-.56-1.5-.86-.52-.29-1-.56-1.44-.79Zm.44,10.92c.4-.56.84-1.22,1.32-2,.48-.78.98-1.6,1.48-2.48s.96-1.73,1.39-2.56l1.52,1.39c-.38.76-.8,1.56-1.24,2.39-.45.83-.9,1.64-1.35,2.43-.45.79-.91,1.54-1.36,2.25l-1.74-1.41Zm.62-17l1.19-1.48c.43.19.9.43,1.42.7.52.28,1.02.55,1.51.81.48.26.88.51,1.19.73l-1.21,1.67c-.31-.22-.7-.47-1.17-.76-.47-.29-.96-.58-1.48-.88-.51-.3-1-.57-1.45-.8Zm5.22,4.67h14.02v2h-14.02v-2Zm11.51-6.38l1.61,1.63c-1.03.37-2.19.69-3.49.98-1.3.29-2.65.53-4.04.72-1.4.19-2.74.35-4.03.46-.04-.25-.13-.55-.25-.9s-.25-.64-.36-.86c.95-.1,1.92-.22,2.91-.36.98-.14,1.94-.29,2.88-.46.94-.17,1.82-.35,2.63-.55.81-.2,1.53-.41,2.15-.65Zm-10.02,11.67h11.23v8.61h-1.98v-6.72h-7.33v6.8h-1.92v-8.7Zm1.34,5.88h8.76v1.89h-8.76v-1.89Zm3.32-15.39h1.98v10.61h-1.98v-10.61Z"/>
        <path class="cls-1" d="m142.72,88.61l1.78.55c-.4,1.28-.86,2.55-1.4,3.82-.54,1.27-1.12,2.47-1.76,3.6-.64,1.13-1.31,2.13-2.01,2.99-.04-.16-.12-.38-.24-.66-.12-.28-.24-.56-.36-.84-.12-.28-.24-.51-.34-.68.59-.72,1.15-1.55,1.69-2.49s1.04-1.95,1.49-3.03c.45-1.08.83-2.17,1.16-3.27Zm-1.67,5.68l1.78-1.94.07.04v16.56h-1.85v-14.66Zm10.5,6.65l1.3.88c-.6.7-1.34,1.41-2.22,2.11-.88.7-1.82,1.35-2.83,1.94-1.01.59-1.98,1.07-2.94,1.45-.1-.23-.25-.5-.44-.79-.19-.29-.37-.54-.55-.73.94-.29,1.9-.7,2.88-1.22.98-.52,1.9-1.1,2.74-1.73.84-.63,1.53-1.27,2.06-1.92Zm-1.01-2.49l1.21.81c-.51.53-1.16,1.07-1.95,1.62-.79.55-1.6,1.06-2.46,1.54s-1.66.88-2.42,1.2c-.1-.21-.25-.44-.43-.72-.18-.27-.37-.5-.56-.67.75-.25,1.54-.58,2.38-.99.84-.41,1.63-.86,2.39-1.35s1.37-.97,1.84-1.44Zm.51-3.76l1.56.59c-.56.69-1.24,1.34-2.06,1.95-.81.61-1.68,1.16-2.61,1.64-.92.49-1.84.9-2.75,1.25-.06-.12-.15-.27-.28-.45-.12-.18-.26-.36-.4-.54-.14-.18-.26-.31-.36-.42.88-.28,1.75-.62,2.62-1.02.87-.4,1.67-.86,2.41-1.36.74-.51,1.36-1.05,1.86-1.64Zm-6.83-3.76h14.24v3.7h-1.98v-2.09h-10.37v2.09h-1.89v-3.7Zm1.74,3.28h10.57v1.63h-10.57v-1.63Zm3.37,2.82l1.48-.75c.66.68,1.19,1.47,1.58,2.38.4.91.68,1.85.84,2.81.16.96.23,1.89.21,2.77s-.12,1.67-.31,2.34c-.18.68-.43,1.17-.74,1.48-.29.34-.6.57-.92.7-.32.13-.73.21-1.21.22-.21,0-.45,0-.73-.01-.28,0-.57-.02-.86-.03,0-.25-.04-.55-.11-.89-.07-.35-.19-.65-.35-.91.34.04.65.07.95.08.29,0,.53.01.7.01.25,0,.45-.03.62-.08.16-.05.31-.19.44-.41.19-.19.34-.55.46-1.08.12-.53.18-1.16.2-1.89.01-.73-.05-1.5-.19-2.31-.14-.81-.38-1.6-.72-2.37s-.79-1.46-1.34-2.06Zm.37-7.95l1.81-.53c.18.44.36.91.54,1.42s.33.95.43,1.33l-1.89.64c-.07-.38-.19-.84-.36-1.38-.17-.54-.34-1.03-.52-1.49Zm7.09,7.73l1.48,1.17c-.54.37-1.13.73-1.77,1.09-.64.36-1.27.69-1.9,1-.63.31-1.23.58-1.78.81l-1.23-1.08c.54-.25,1.13-.54,1.77-.88.64-.34,1.26-.69,1.87-1.07s1.13-.72,1.57-1.05Zm-1.63,2.47c.29.82.65,1.65,1.08,2.49.43.84.91,1.61,1.44,2.31.54.7,1.08,1.28,1.62,1.74-.22.18-.47.41-.74.7-.27.29-.5.57-.67.81-.56-.56-1.1-1.25-1.63-2.08s-1.01-1.72-1.45-2.68c-.44-.95-.81-1.91-1.1-2.86l1.45-.44Z"/>
        <path class="cls-1" d="m167.71,88.57l1.96.62c-.47,1.23-1.03,2.47-1.67,3.7s-1.34,2.4-2.09,3.49c-.75,1.09-1.53,2.05-2.33,2.87-.06-.16-.15-.37-.29-.64-.13-.26-.28-.54-.43-.81-.15-.28-.3-.5-.43-.66.7-.69,1.38-1.49,2.04-2.41s1.26-1.9,1.82-2.95c.56-1.05,1.03-2.12,1.43-3.2Zm-2.22,5.88l1.96-1.96.02.02v16.42h-1.98v-14.49Zm7.64,9.53l1.63,1.12c-.63.76-1.39,1.49-2.29,2.17-.9.68-1.81,1.26-2.73,1.73-.15-.24-.35-.49-.59-.77-.25-.28-.48-.51-.7-.7.59-.29,1.17-.63,1.76-1.02.59-.39,1.13-.8,1.64-1.23.51-.43.94-.86,1.29-1.29Zm-4.6-1.92h14.68v1.85h-14.68v-1.85Zm2.14-12.72h10.68v13.54h-2.07v-11.84h-6.6v11.84h-2v-13.54Zm.99,3.32h8.43v1.45h-8.43v-1.45Zm0,3.1h8.43v1.45h-8.43v-1.45Zm0,3.13h8.43v1.45h-8.43v-1.45Zm5.66,6.36l1.32-1.28c.53.32,1.09.7,1.68,1.13s1.16.86,1.71,1.28c.54.42.98.8,1.3,1.16l-1.41,1.45c-.31-.35-.72-.75-1.24-1.19-.52-.44-1.08-.88-1.66-1.33-.59-.45-1.15-.85-1.7-1.22Z"/>
        <path class="cls-1" d="m201.68,101.71v-1.7h23.46v1.7h-23.46Z"/>
      </g>
    </g>
  </g>
</svg>