<?xml version="1.0" encoding="UTF-8"?>
<svg id="_圖層_2" data-name="圖層 2" xmlns="http://www.w3.org/2000/svg" viewBox="0 0 29.64 37">
  <defs>
    <style>
      .cls-1 {
        fill: #fdfef8;
        stroke-width: 0px;
      }
    </style>
  </defs>
  <g id="_圖層_1-2" data-name="圖層 1">
    <g>
      <path class="cls-1" d="m12.35,3.65V0h4.93v3.65c.71.13,1.39.23,2.06.39,3.06.7,5.84,1.91,8.05,4.07,1.49,1.45,2.36,3.16,2.25,5.23-.03.52,0,1.03,0,1.55,0,1.54-1.02,2.5-2.66,2.5-4.56,0-9.12,0-13.69,0-3.53,0-7.07,0-10.6,0-1.65,0-2.67-.96-2.67-2.5,0-.89-.04-1.78.04-2.67.15-1.63,1.02-2.96,2.2-4.11,1.98-1.94,4.44-3.12,7.16-3.85.86-.23,1.75-.36,2.63-.53.1-.02.19-.05.31-.07Z"/>
      <path class="cls-1" d="m2.53,20.83h24.58c-.04.51-.06,1.01-.11,1.51-.2,2.15-.63,4.26-1.49,6.27-1.24,2.87-3.38,4.95-6.26,6.41-1.08.55-2.15,1.12-3.23,1.67-.75.38-1.54.43-2.29.05-1.44-.73-2.89-1.47-4.29-2.26-3.3-1.86-5.17-4.69-6.1-8.12-.49-1.8-.73-3.63-.8-5.52Z"/>
    </g>
  </g>
</svg>